<?xml version='1.0' encoding='UTF-8'?>
<svg width="61mm" height="61mm" version="1.1" viewBox="0 0 61 61" xmlns="http://www.w3.org/2000/svg"><path d="M4,4H5V5H4zM5,4H6V5H5zM6,4H7V5H6zM7,4H8V5H7zM8,4H9V5H8zM9,4H10V5H9zM10,4H11V5H10zM15,4H16V5H15zM16,4H17V5H16zM17,4H18V5H17zM22,4H23V5H22zM23,4H24V5H23zM24,4H25V5H24zM25,4H26V5H25zM30,4H31V5H30zM31,4H32V5H31zM32,4H33V5H32zM38,4H39V5H38zM39,4H40V5H39zM40,4H41V5H40zM42,4H43V5H42zM43,4H44V5H43zM44,4H45V5H44zM45,4H46V5H45zM46,4H47V5H46zM50,4H51V5H50zM51,4H52V5H51zM52,4H53V5H52zM53,4H54V5H53zM54,4H55V5H54zM55,4H56V5H55zM56,4H57V5H56zM4,5H5V6H4zM10,5H11V6H10zM12,5H13V6H12zM13,5H14V6H13zM18,5H19V6H18zM19,5H20V6H19zM24,5H25V6H24zM25,5H26V6H25zM27,5H28V6H27zM28,5H29V6H28zM29,5H30V6H29zM32,5H33V6H32zM33,5H34V6H33zM35,5H36V6H35zM38,5H39V6H38zM39,5H40V6H39zM40,5H41V6H40zM41,5H42V6H41zM43,5H44V6H43zM44,5H45V6H44zM46,5H47V6H46zM47,5H48V6H47zM50,5H51V6H50zM56,5H57V6H56zM4,6H5V7H4zM6,6H7V7H6zM7,6H8V7H7zM8,6H9V7H8zM10,6H11V7H10zM13,6H14V7H13zM15,6H16V7H15zM18,6H19V7H18zM20,6H21V7H20zM21,6H22V7H21zM22,6H23V7H22zM23,6H24V7H23zM25,6H26V7H25zM27,6H28V7H27zM29,6H30V7H29zM30,6H31V7H30zM32,6H33V7H32zM36,6H37V7H36zM37,6H38V7H37zM43,6H44V7H43zM45,6H46V7H45zM47,6H48V7H47zM50,6H51V7H50zM52,6H53V7H52zM53,6H54V7H53zM54,6H55V7H54zM56,6H57V7H56zM4,7H5V8H4zM6,7H7V8H6zM7,7H8V8H7zM8,7H9V8H8zM10,7H11V8H10zM13,7H14V8H13zM14,7H15V8H14zM15,7H16V8H15zM17,7H18V8H17zM27,7H28V8H27zM28,7H29V8H28zM30,7H31V8H30zM32,7H33V8H32zM35,7H36V8H35zM37,7H38V8H37zM39,7H40V8H39zM41,7H42V8H41zM42,7H43V8H42zM44,7H45V8H44zM46,7H47V8H46zM48,7H49V8H48zM50,7H51V8H50zM52,7H53V8H52zM53,7H54V8H53zM54,7H55V8H54zM56,7H57V8H56zM4,8H5V9H4zM6,8H7V9H6zM7,8H8V9H7zM8,8H9V9H8zM10,8H11V9H10zM16,8H17V9H16zM17,8H18V9H17zM18,8H19V9H18zM20,8H21V9H20zM22,8H23V9H22zM26,8H27V9H26zM27,8H28V9H27zM28,8H29V9H28zM29,8H30V9H29zM30,8H31V9H30zM31,8H32V9H31zM32,8H33V9H32zM33,8H34V9H33zM37,8H38V9H37zM38,8H39V9H38zM39,8H40V9H39zM40,8H41V9H40zM42,8H43V9H42zM43,8H44V9H43zM45,8H46V9H45zM46,8H47V9H46zM50,8H51V9H50zM52,8H53V9H52zM53,8H54V9H53zM54,8H55V9H54zM56,8H57V9H56zM4,9H5V10H4zM10,9H11V10H10zM12,9H13V10H12zM15,9H16V10H15zM16,9H17V10H16zM18,9H19V10H18zM20,9H21V10H20zM21,9H22V10H21zM22,9H23V10H22zM24,9H25V10H24zM26,9H27V10H26zM27,9H28V10H27zM28,9H29V10H28zM32,9H33V10H32zM33,9H34V10H33zM35,9H36V10H35zM37,9H38V10H37zM38,9H39V10H38zM40,9H41V10H40zM41,9H42V10H41zM45,9H46V10H45zM46,9H47V10H46zM50,9H51V10H50zM56,9H57V10H56zM4,10H5V11H4zM5,10H6V11H5zM6,10H7V11H6zM7,10H8V11H7zM8,10H9V11H8zM9,10H10V11H9zM10,10H11V11H10zM12,10H13V11H12zM14,10H15V11H14zM16,10H17V11H16zM18,10H19V11H18zM20,10H21V11H20zM22,10H23V11H22zM24,10H25V11H24zM26,10H27V11H26zM28,10H29V11H28zM30,10H31V11H30zM32,10H33V11H32zM34,10H35V11H34zM36,10H37V11H36zM38,10H39V11H38zM40,10H41V11H40zM42,10H43V11H42zM44,10H45V11H44zM46,10H47V11H46zM48,10H49V11H48zM50,10H51V11H50zM51,10H52V11H51zM52,10H53V11H52zM53,10H54V11H53zM54,10H55V11H54zM55,10H56V11H55zM56,10H57V11H56zM12,11H13V12H12zM13,11H14V12H13zM15,11H16V12H15zM17,11H18V12H17zM21,11H22V12H21zM22,11H23V12H22zM23,11H24V12H23zM24,11H25V12H24zM25,11H26V12H25zM28,11H29V12H28zM32,11H33V12H32zM33,11H34V12H33zM35,11H36V12H35zM41,11H42V12H41zM43,11H44V12H43zM45,11H46V12H45zM47,11H48V12H47zM48,11H49V12H48zM8,12H9V13H8zM9,12H10V13H9zM10,12H11V13H10zM11,12H12V13H11zM13,12H14V13H13zM14,12H15V13H14zM15,12H16V13H15zM20,12H21V13H20zM28,12H29V13H28zM29,12H30V13H29zM30,12H31V13H30zM31,12H32V13H31zM32,12H33V13H32zM34,12H35V13H34zM35,12H36V13H35zM36,12H37V13H36zM39,12H40V13H39zM40,12H41V13H40zM41,12H42V13H41zM42,12H43V13H42zM43,12H44V13H43zM45,12H46V13H45zM50,12H51V13H50zM51,12H52V13H51zM55,12H56V13H55zM4,13H5V14H4zM6,13H7V14H6zM8,13H9V14H8zM11,13H12V14H11zM12,13H13V14H12zM14,13H15V14H14zM17,13H18V14H17zM19,13H20V14H19zM20,13H21V14H20zM21,13H22V14H21zM22,13H23V14H22zM23,13H24V14H23zM27,13H28V14H27zM28,13H29V14H28zM31,13H32V14H31zM33,13H34V14H33zM34,13H35V14H34zM38,13H39V14H38zM42,13H43V14H42zM43,13H44V14H43zM44,13H45V14H44zM46,13H47V14H46zM47,13H48V14H47zM48,13H49V14H48zM49,13H50V14H49zM52,13H53V14H52zM54,13H55V14H54zM56,13H57V14H56zM4,14H5V15H4zM7,14H8V15H7zM8,14H9V15H8zM10,14H11V15H10zM11,14H12V15H11zM12,14H13V15H12zM13,14H14V15H13zM15,14H16V15H15zM16,14H17V15H16zM18,14H19V15H18zM19,14H20V15H19zM20,14H21V15H20zM21,14H22V15H21zM23,14H24V15H23zM26,14H27V15H26zM27,14H28V15H27zM28,14H29V15H28zM29,14H30V15H29zM30,14H31V15H30zM32,14H33V15H32zM36,14H37V15H36zM40,14H41V15H40zM42,14H43V15H42zM45,14H46V15H45zM46,14H47V15H46zM47,14H48V15H47zM48,14H49V15H48zM49,14H50V15H49zM51,14H52V15H51zM53,14H54V15H53zM56,14H57V15H56zM4,15H5V16H4zM5,15H6V16H5zM6,15H7V16H6zM7,15H8V16H7zM11,15H12V16H11zM12,15H13V16H12zM14,15H15V16H14zM16,15H17V16H16zM22,15H23V16H22zM23,15H24V16H23zM24,15H25V16H24zM30,15H31V16H30zM31,15H32V16H31zM32,15H33V16H32zM35,15H36V16H35zM36,15H37V16H36zM38,15H39V16H38zM39,15H40V16H39zM40,15H41V16H40zM41,15H42V16H41zM44,15H45V16H44zM46,15H47V16H46zM51,15H52V16H51zM52,15H53V16H52zM53,15H54V16H53zM55,15H56V16H55zM4,16H5V17H4zM7,16H8V17H7zM8,16H9V17H8zM9,16H10V17H9zM10,16H11V17H10zM11,16H12V17H11zM14,16H15V17H14zM15,16H16V17H15zM21,16H22V17H21zM22,16H23V17H22zM23,16H24V17H23zM24,16H25V17H24zM27,16H28V17H27zM28,16H29V17H28zM34,16H35V17H34zM35,16H36V17H35zM36,16H37V17H36zM38,16H39V17H38zM39,16H40V17H39zM40,16H41V17H40zM42,16H43V17H42zM45,16H46V17H45zM47,16H48V17H47zM48,16H49V17H48zM50,16H51V17H50zM51,16H52V17H51zM52,16H53V17H52zM55,16H56V17H55zM56,16H57V17H56zM6,17H7V18H6zM7,17H8V18H7zM12,17H13V18H12zM14,17H15V18H14zM17,17H18V18H17zM18,17H19V18H18zM19,17H20V18H19zM21,17H22V18H21zM23,17H24V18H23zM24,17H25V18H24zM25,17H26V18H25zM27,17H28V18H27zM28,17H29V18H28zM30,17H31V18H30zM31,17H32V18H31zM33,17H34V18H33zM34,17H35V18H34zM35,17H36V18H35zM36,17H37V18H36zM37,17H38V18H37zM39,17H40V18H39zM42,17H43V18H42zM43,17H44V18H43zM45,17H46V18H45zM46,17H47V18H46zM49,17H50V18H49zM50,17H51V18H50zM53,17H54V18H53zM54,17H55V18H54zM56,17H57V18H56zM4,18H5V19H4zM5,18H6V19H5zM6,18H7V19H6zM7,18H8V19H7zM10,18H11V19H10zM17,18H18V19H17zM18,18H19V19H18zM19,18H20V19H19zM20,18H21V19H20zM22,18H23V19H22zM23,18H24V19H23zM24,18H25V19H24zM25,18H26V19H25zM28,18H29V19H28zM29,18H30V19H29zM34,18H35V19H34zM35,18H36V19H35zM36,18H37V19H36zM40,18H41V19H40zM41,18H42V19H41zM42,18H43V19H42zM43,18H44V19H43zM44,18H45V19H44zM46,18H47V19H46zM48,18H49V19H48zM49,18H50V19H49zM50,18H51V19H50zM54,18H55V19H54zM56,18H57V19H56zM7,19H8V20H7zM8,19H9V20H8zM9,19H10V20H9zM12,19H13V20H12zM13,19H14V20H13zM14,19H15V20H14zM16,19H17V20H16zM17,19H18V20H17zM18,19H19V20H18zM23,19H24V20H23zM26,19H27V20H26zM27,19H28V20H27zM28,19H29V20H28zM31,19H32V20H31zM32,19H33V20H32zM33,19H34V20H33zM35,19H36V20H35zM36,19H37V20H36zM37,19H38V20H37zM38,19H39V20H38zM40,19H41V20H40zM41,19H42V20H41zM42,19H43V20H42zM43,19H44V20H43zM46,19H47V20H46zM47,19H48V20H47zM48,19H49V20H48zM50,19H51V20H50zM52,19H53V20H52zM56,19H57V20H56zM6,20H7V21H6zM7,20H8V21H7zM9,20H10V21H9zM10,20H11V21H10zM13,20H14V21H13zM16,20H17V21H16zM17,20H18V21H17zM18,20H19V21H18zM19,20H20V21H19zM20,20H21V21H20zM22,20H23V21H22zM23,20H24V21H23zM24,20H25V21H24zM32,20H33V21H32zM33,20H34V21H33zM34,20H35V21H34zM36,20H37V21H36zM38,20H39V21H38zM40,20H41V21H40zM42,20H43V21H42zM43,20H44V21H43zM45,20H46V21H45zM47,20H48V21H47zM51,20H52V21H51zM52,20H53V21H52zM53,20H54V21H53zM5,21H6V22H5zM7,21H8V22H7zM11,21H12V22H11zM13,21H14V22H13zM14,21H15V22H14zM15,21H16V22H15zM17,21H18V22H17zM24,21H25V22H24zM28,21H29V22H28zM29,21H30V22H29zM30,21H31V22H30zM35,21H36V22H35zM36,21H37V22H36zM37,21H38V22H37zM38,21H39V22H38zM39,21H40V22H39zM40,21H41V22H40zM42,21H43V22H42zM43,21H44V22H43zM45,21H46V22H45zM46,21H47V22H46zM48,21H49V22H48zM49,21H50V22H49zM51,21H52V22H51zM52,21H53V22H52zM56,21H57V22H56zM4,22H5V23H4zM6,22H7V23H6zM10,22H11V23H10zM12,22H13V23H12zM16,22H17V23H16zM20,22H21V23H20zM21,22H22V23H21zM25,22H26V23H25zM28,22H29V23H28zM30,22H31V23H30zM32,22H33V23H32zM33,22H34V23H33zM37,22H38V23H37zM40,22H41V23H40zM42,22H43V23H42zM45,22H46V23H45zM46,22H47V23H46zM47,22H48V23H47zM53,22H54V23H53zM54,22H55V23H54zM56,22H57V23H56zM4,23H5V24H4zM5,23H6V24H5zM7,23H8V24H7zM11,23H12V24H11zM14,23H15V24H14zM15,23H16V24H15zM17,23H18V24H17zM23,23H24V24H23zM25,23H26V24H25zM26,23H27V24H26zM28,23H29V24H28zM30,23H31V24H30zM37,23H38V24H37zM38,23H39V24H38zM39,23H40V24H39zM41,23H42V24H41zM42,23H43V24H42zM46,23H47V24H46zM48,23H49V24H48zM49,23H50V24H49zM50,23H51V24H50zM53,23H54V24H53zM55,23H56V24H55zM56,23H57V24H56zM5,24H6V25H5zM7,24H8V25H7zM8,24H9V25H8zM9,24H10V25H9zM10,24H11V25H10zM11,24H12V25H11zM15,24H16V25H15zM20,24H21V25H20zM23,24H24V25H23zM24,24H25V25H24zM25,24H26V25H25zM26,24H27V25H26zM28,24H29V25H28zM29,24H30V25H29zM30,24H31V25H30zM33,24H34V25H33zM36,24H37V25H36zM38,24H39V25H38zM39,24H40V25H39zM41,24H42V25H41zM43,24H44V25H43zM47,24H48V25H47zM49,24H50V25H49zM50,24H51V25H50zM51,24H52V25H51zM52,24H53V25H52zM53,24H54V25H53zM56,24H57V25H56zM5,25H6V26H5zM6,25H7V26H6zM8,25H9V26H8zM9,25H10V26H9zM12,25H13V26H12zM13,25H14V26H13zM14,25H15V26H14zM15,25H16V26H15zM16,25H17V26H16zM21,25H22V26H21zM22,25H23V26H22zM23,25H24V26H23zM26,25H27V26H26zM29,25H30V26H29zM30,25H31V26H30zM31,25H32V26H31zM32,25H33V26H32zM33,25H34V26H33zM37,25H38V26H37zM44,25H45V26H44zM45,25H46V26H45zM46,25H47V26H46zM48,25H49V26H48zM49,25H50V26H49zM51,25H52V26H51zM52,25H53V26H52zM53,25H54V26H53zM54,25H55V26H54zM55,25H56V26H55zM56,25H57V26H56zM5,26H6V27H5zM6,26H7V27H6zM7,26H8V27H7zM8,26H9V27H8zM10,26H11V27H10zM13,26H14V27H13zM15,26H16V27H15zM18,26H19V27H18zM19,26H20V27H19zM20,26H21V27H20zM22,26H23V27H22zM23,26H24V27H23zM24,26H25V27H24zM25,26H26V27H25zM28,26H29V27H28zM29,26H30V27H29zM30,26H31V27H30zM31,26H32V27H31zM32,26H33V27H32zM34,26H35V27H34zM38,26H39V27H38zM40,26H41V27H40zM44,26H45V27H44zM45,26H46V27H45zM46,26H47V27H46zM47,26H48V27H47zM49,26H50V27H49zM52,26H53V27H52zM53,26H54V27H53zM56,26H57V27H56zM4,27H5V28H4zM6,27H7V28H6zM8,27H9V28H8zM11,27H12V28H11zM12,27H13V28H12zM14,27H15V28H14zM15,27H16V28H15zM16,27H17V28H16zM18,27H19V28H18zM22,27H23V28H22zM24,27H25V28H24zM25,27H26V28H25zM27,27H28V28H27zM28,27H29V28H28zM31,27H32V28H31zM33,27H34V28H33zM35,27H36V28H35zM36,27H37V28H36zM38,27H39V28H38zM39,27H40V28H39zM40,27H41V28H40zM41,27H42V28H41zM42,27H43V28H42zM43,27H44V28H43zM48,27H49V28H48zM50,27H51V28H50zM51,27H52V28H51zM52,27H53V28H52zM53,27H54V28H53zM4,28H5V29H4zM8,28H9V29H8zM9,28H10V29H9zM10,28H11V29H10zM11,28H12V29H11zM12,28H13V29H12zM13,28H14V29H13zM14,28H15V29H14zM16,28H17V29H16zM17,28H18V29H17zM22,28H23V29H22zM23,28H24V29H23zM24,28H25V29H24zM26,28H27V29H26zM28,28H29V29H28zM29,28H30V29H29zM30,28H31V29H30zM31,28H32V29H31zM32,28H33V29H32zM35,28H36V29H35zM37,28H38V29H37zM39,28H40V29H39zM40,28H41V29H40zM42,28H43V29H42zM43,28H44V29H43zM45,28H46V29H45zM48,28H49V29H48zM49,28H50V29H49zM50,28H51V29H50zM51,28H52V29H51zM52,28H53V29H52zM53,28H54V29H53zM55,28H56V29H55zM56,28H57V29H56zM5,29H6V30H5zM7,29H8V30H7zM8,29H9V30H8zM12,29H13V30H12zM13,29H14V30H13zM14,29H15V30H14zM19,29H20V30H19zM20,29H21V30H20zM23,29H24V30H23zM28,29H29V30H28zM32,29H33V30H32zM33,29H34V30H33zM34,29H35V30H34zM35,29H36V30H35zM36,29H37V30H36zM38,29H39V30H38zM39,29H40V30H39zM40,29H41V30H40zM42,29H43V30H42zM43,29H44V30H43zM45,29H46V30H45zM46,29H47V30H46zM47,29H48V30H47zM48,29H49V30H48zM52,29H53V30H52zM53,29H54V30H53zM54,29H55V30H54zM56,29H57V30H56zM5,30H6V31H5zM6,30H7V31H6zM7,30H8V31H7zM8,30H9V31H8zM10,30H11V31H10zM12,30H13V31H12zM14,30H15V31H14zM15,30H16V31H15zM16,30H17V31H16zM21,30H22V31H21zM23,30H24V31H23zM25,30H26V31H25zM27,30H28V31H27zM28,30H29V31H28zM30,30H31V31H30zM32,30H33V31H32zM33,30H34V31H33zM37,30H38V31H37zM39,30H40V31H39zM40,30H41V31H40zM42,30H43V31H42zM44,30H45V31H44zM45,30H46V31H45zM46,30H47V31H46zM47,30H48V31H47zM48,30H49V31H48zM50,30H51V31H50zM52,30H53V31H52zM53,30H54V31H53zM56,30H57V31H56zM6,31H7V32H6zM8,31H9V32H8zM12,31H13V32H12zM13,31H14V32H13zM18,31H19V32H18zM19,31H20V32H19zM20,31H21V32H20zM23,31H24V32H23zM24,31H25V32H24zM27,31H28V32H27zM28,31H29V32H28zM32,31H33V32H32zM35,31H36V32H35zM37,31H38V32H37zM38,31H39V32H38zM41,31H42V32H41zM42,31H43V32H42zM43,31H44V32H43zM45,31H46V32H45zM48,31H49V32H48zM52,31H53V32H52zM53,31H54V32H53zM5,32H6V33H5zM8,32H9V33H8zM9,32H10V33H9zM10,32H11V33H10zM11,32H12V33H11zM12,32H13V33H12zM13,32H14V33H13zM15,32H16V33H15zM17,32H18V33H17zM19,32H20V33H19zM21,32H22V33H21zM22,32H23V33H22zM25,32H26V33H25zM28,32H29V33H28zM29,32H30V33H29zM30,32H31V33H30zM31,32H32V33H31zM32,32H33V33H32zM34,32H35V33H34zM39,32H40V33H39zM40,32H41V33H40zM41,32H42V33H41zM42,32H43V33H42zM43,32H44V33H43zM45,32H46V33H45zM46,32H47V33H46zM48,32H49V33H48zM49,32H50V33H49zM50,32H51V33H50zM51,32H52V33H51zM52,32H53V33H52zM4,33H5V34H4zM6,33H7V34H6zM8,33H9V34H8zM9,33H10V34H9zM11,33H12V34H11zM12,33H13V34H12zM13,33H14V34H13zM14,33H15V34H14zM15,33H16V34H15zM16,33H17V34H16zM17,33H18V34H17zM21,33H22V34H21zM25,33H26V34H25zM26,33H27V34H26zM27,33H28V34H27zM28,33H29V34H28zM29,33H30V34H29zM30,33H31V34H30zM31,33H32V34H31zM33,33H34V34H33zM35,33H36V34H35zM36,33H37V34H36zM39,33H40V34H39zM40,33H41V34H40zM42,33H43V34H42zM44,33H45V34H44zM46,33H47V34H46zM47,33H48V34H47zM49,33H50V34H49zM51,33H52V34H51zM52,33H53V34H52zM53,33H54V34H53zM56,33H57V34H56zM4,34H5V35H4zM10,34H11V35H10zM16,34H17V35H16zM17,34H18V35H17zM19,34H20V35H19zM21,34H22V35H21zM26,34H27V35H26zM28,34H29V35H28zM29,34H30V35H29zM30,34H31V35H30zM31,34H32V35H31zM33,34H34V35H33zM34,34H35V35H34zM36,34H37V35H36zM37,34H38V35H37zM38,34H39V35H38zM40,34H41V35H40zM42,34H43V35H42zM43,34H44V35H43zM44,34H45V35H44zM47,34H48V35H47zM50,34H51V35H50zM51,34H52V35H51zM52,34H53V35H52zM56,34H57V35H56zM4,35H5V36H4zM7,35H8V36H7zM8,35H9V36H8zM12,35H13V36H12zM14,35H15V36H14zM15,35H16V36H15zM16,35H17V36H16zM17,35H18V36H17zM20,35H21V36H20zM21,35H22V36H21zM24,35H25V36H24zM25,35H26V36H25zM27,35H28V36H27zM31,35H32V36H31zM32,35H33V36H32zM34,35H35V36H34zM35,35H36V36H35zM37,35H38V36H37zM38,35H39V36H38zM39,35H40V36H39zM40,35H41V36H40zM41,35H42V36H41zM42,35H43V36H42zM43,35H44V36H43zM45,35H46V36H45zM46,35H47V36H46zM47,35H48V36H47zM48,35H49V36H48zM51,35H52V36H51zM53,35H54V36H53zM56,35H57V36H56zM4,36H5V37H4zM7,36H8V37H7zM10,36H11V37H10zM11,36H12V37H11zM12,36H13V37H12zM13,36H14V37H13zM14,36H15V37H14zM15,36H16V37H15zM17,36H18V37H17zM18,36H19V37H18zM20,36H21V37H20zM21,36H22V37H21zM22,36H23V37H22zM26,36H27V37H26zM28,36H29V37H28zM29,36H30V37H29zM31,36H32V37H31zM32,36H33V37H32zM33,36H34V37H33zM35,36H36V37H35zM37,36H38V37H37zM39,36H40V37H39zM40,36H41V37H40zM42,36H43V37H42zM43,36H44V37H43zM47,36H48V37H47zM49,36H50V37H49zM50,36H51V37H50zM51,36H52V37H51zM55,36H56V37H55zM56,36H57V37H56zM7,37H8V38H7zM9,37H10V38H9zM11,37H12V38H11zM12,37H13V38H12zM15,37H16V38H15zM16,37H17V38H16zM20,37H21V38H20zM22,37H23V38H22zM23,37H24V38H23zM24,37H25V38H24zM26,37H27V38H26zM27,37H28V38H27zM29,37H30V38H29zM30,37H31V38H30zM31,37H32V38H31zM33,37H34V38H33zM34,37H35V38H34zM37,37H38V38H37zM38,37H39V38H38zM39,37H40V38H39zM40,37H41V38H40zM41,37H42V38H41zM42,37H43V38H42zM43,37H44V38H43zM44,37H45V38H44zM46,37H47V38H46zM48,37H49V38H48zM49,37H50V38H49zM50,37H51V38H50zM51,37H52V38H51zM52,37H53V38H52zM55,37H56V38H55zM56,37H57V38H56zM4,38H5V39H4zM8,38H9V39H8zM10,38H11V39H10zM14,38H15V39H14zM15,38H16V39H15zM17,38H18V39H17zM19,38H20V39H19zM20,38H21V39H20zM21,38H22V39H21zM24,38H25V39H24zM25,38H26V39H25zM26,38H27V39H26zM27,38H28V39H27zM28,38H29V39H28zM30,38H31V39H30zM31,38H32V39H31zM36,38H37V39H36zM38,38H39V39H38zM42,38H43V39H42zM43,38H44V39H43zM44,38H45V39H44zM45,38H46V39H45zM46,38H47V39H46zM48,38H49V39H48zM50,38H51V39H50zM52,38H53V39H52zM54,38H55V39H54zM56,38H57V39H56zM4,39H5V40H4zM5,39H6V40H5zM7,39H8V40H7zM8,39H9V40H8zM9,39H10V40H9zM13,39H14V40H13zM14,39H15V40H14zM15,39H16V40H15zM17,39H18V40H17zM19,39H20V40H19zM20,39H21V40H20zM21,39H22V40H21zM24,39H25V40H24zM25,39H26V40H25zM30,39H31V40H30zM32,39H33V40H32zM36,39H37V40H36zM38,39H39V40H38zM40,39H41V40H40zM41,39H42V40H41zM43,39H44V40H43zM45,39H46V40H45zM47,39H48V40H47zM48,39H49V40H48zM52,39H53V40H52zM53,39H54V40H53zM56,39H57V40H56zM4,40H5V41H4zM5,40H6V41H5zM7,40H8V41H7zM9,40H10V41H9zM10,40H11V41H10zM11,40H12V41H11zM12,40H13V41H12zM13,40H14V41H13zM17,40H18V41H17zM20,40H21V41H20zM21,40H22V41H21zM23,40H24V41H23zM24,40H25V41H24zM26,40H27V41H26zM28,40H29V41H28zM29,40H30V41H29zM31,40H32V41H31zM33,40H34V41H33zM38,40H39V41H38zM39,40H40V41H39zM40,40H41V41H40zM42,40H43V41H42zM43,40H44V41H43zM45,40H46V41H45zM47,40H48V41H47zM49,40H50V41H49zM51,40H52V41H51zM53,40H54V41H53zM6,41H7V42H6zM7,41H8V42H7zM9,41H10V42H9zM11,41H12V42H11zM12,41H13V42H12zM15,41H16V42H15zM16,41H17V42H16zM17,41H18V42H17zM19,41H20V42H19zM20,41H21V42H20zM22,41H23V42H22zM25,41H26V42H25zM26,41H27V42H26zM28,41H29V42H28zM29,41H30V42H29zM30,41H31V42H30zM32,41H33V42H32zM33,41H34V42H33zM34,41H35V42H34zM36,41H37V42H36zM39,41H40V42H39zM40,41H41V42H40zM41,41H42V42H41zM42,41H43V42H42zM43,41H44V42H43zM45,41H46V42H45zM46,41H47V42H46zM48,41H49V42H48zM51,41H52V42H51zM52,41H53V42H52zM54,41H55V42H54zM55,41H56V42H55zM56,41H57V42H56zM5,42H6V43H5zM7,42H8V43H7zM10,42H11V43H10zM12,42H13V43H12zM13,42H14V43H13zM14,42H15V43H14zM15,42H16V43H15zM17,42H18V43H17zM19,42H20V43H19zM23,42H24V43H23zM24,42H25V43H24zM30,42H31V43H30zM32,42H33V43H32zM33,42H34V43H33zM34,42H35V43H34zM35,42H36V43H35zM38,42H39V43H38zM40,42H41V43H40zM41,42H42V43H41zM42,42H43V43H42zM44,42H45V43H44zM46,42H47V43H46zM50,42H51V43H50zM51,42H52V43H51zM53,42H54V43H53zM54,42H55V43H54zM56,42H57V43H56zM6,43H7V44H6zM11,43H12V44H11zM14,43H15V44H14zM15,43H16V44H15zM16,43H17V44H16zM19,43H20V44H19zM20,43H21V44H20zM25,43H26V44H25zM26,43H27V44H26zM27,43H28V44H27zM28,43H29V44H28zM29,43H30V44H29zM30,43H31V44H30zM32,43H33V44H32zM35,43H36V44H35zM37,43H38V44H37zM40,43H41V44H40zM42,43H43V44H42zM43,43H44V44H43zM46,43H47V44H46zM47,43H48V44H47zM48,43H49V44H48zM49,43H50V44H49zM53,43H54V44H53zM5,44H6V45H5zM8,44H9V45H8zM9,44H10V45H9zM10,44H11V45H10zM11,44H12V45H11zM12,44H13V45H12zM14,44H15V45H14zM15,44H16V45H15zM17,44H18V45H17zM19,44H20V45H19zM20,44H21V45H20zM21,44H22V45H21zM22,44H23V45H22zM26,44H27V45H26zM27,44H28V45H27zM28,44H29V45H28zM29,44H30V45H29zM30,44H31V45H30zM31,44H32V45H31zM32,44H33V45H32zM33,44H34V45H33zM34,44H35V45H34zM35,44H36V45H35zM36,44H37V45H36zM38,44H39V45H38zM40,44H41V45H40zM42,44H43V45H42zM47,44H48V45H47zM49,44H50V45H49zM50,44H51V45H50zM52,44H53V45H52zM55,44H56V45H55zM56,44H57V45H56zM4,45H5V46H4zM6,45H7V46H6zM9,45H10V46H9zM12,45H13V46H12zM13,45H14V46H13zM14,45H15V46H14zM15,45H16V46H15zM17,45H18V46H17zM19,45H20V46H19zM20,45H21V46H20zM21,45H22V46H21zM26,45H27V46H26zM29,45H30V46H29zM30,45H31V46H30zM32,45H33V46H32zM33,45H34V46H33zM34,45H35V46H34zM36,45H37V46H36zM39,45H40V46H39zM42,45H43V46H42zM43,45H44V46H43zM44,45H45V46H44zM45,45H46V46H45zM46,45H47V46H46zM47,45H48V46H47zM52,45H53V46H52zM54,45H55V46H54zM56,45H57V46H56zM4,46H5V47H4zM5,46H6V47H5zM7,46H8V47H7zM8,46H9V47H8zM9,46H10V47H9zM10,46H11V47H10zM12,46H13V47H12zM14,46H15V47H14zM15,46H16V47H15zM17,46H18V47H17zM20,46H21V47H20zM21,46H22V47H21zM29,46H30V47H29zM30,46H31V47H30zM31,46H32V47H31zM32,46H33V47H32zM33,46H34V47H33zM34,46H35V47H34zM36,46H37V47H36zM37,46H38V47H37zM38,46H39V47H38zM40,46H41V47H40zM41,46H42V47H41zM42,46H43V47H42zM45,46H46V47H45zM46,46H47V47H46zM48,46H49V47H48zM50,46H51V47H50zM51,46H52V47H51zM52,46H53V47H52zM56,46H57V47H56zM5,47H6V48H5zM6,47H7V48H6zM11,47H12V48H11zM20,47H21V48H20zM23,47H24V48H23zM24,47H25V48H24zM25,47H26V48H25zM27,47H28V48H27zM28,47H29V48H28zM29,47H30V48H29zM31,47H32V48H31zM34,47H35V48H34zM35,47H36V48H35zM36,47H37V48H36zM37,47H38V48H37zM38,47H39V48H38zM39,47H40V48H39zM40,47H41V48H40zM41,47H42V48H41zM43,47H44V48H43zM44,47H45V48H44zM47,47H48V48H47zM48,47H49V48H48zM49,47H50V48H49zM51,47H52V48H51zM53,47H54V48H53zM7,48H8V49H7zM10,48H11V49H10zM11,48H12V49H11zM20,48H21V49H20zM21,48H22V49H21zM22,48H23V49H22zM25,48H26V49H25zM28,48H29V49H28zM29,48H30V49H29zM30,48H31V49H30zM31,48H32V49H31zM32,48H33V49H32zM37,48H38V49H37zM39,48H40V49H39zM40,48H41V49H40zM41,48H42V49H41zM42,48H43V49H42zM43,48H44V49H43zM44,48H45V49H44zM45,48H46V49H45zM46,48H47V49H46zM47,48H48V49H47zM48,48H49V49H48zM49,48H50V49H49zM50,48H51V49H50zM51,48H52V49H51zM52,48H53V49H52zM53,48H54V49H53zM55,48H56V49H55zM56,48H57V49H56zM12,49H13V50H12zM13,49H14V50H13zM14,49H15V50H14zM15,49H16V50H15zM19,49H20V50H19zM21,49H22V50H21zM24,49H25V50H24zM26,49H27V50H26zM28,49H29V50H28zM32,49H33V50H32zM33,49H34V50H33zM37,49H38V50H37zM39,49H40V50H39zM42,49H43V50H42zM44,49H45V50H44zM45,49H46V50H45zM46,49H47V50H46zM47,49H48V50H47zM48,49H49V50H48zM52,49H53V50H52zM54,49H55V50H54zM56,49H57V50H56zM4,50H5V51H4zM5,50H6V51H5zM6,50H7V51H6zM7,50H8V51H7zM8,50H9V51H8zM9,50H10V51H9zM10,50H11V51H10zM12,50H13V51H12zM16,50H17V51H16zM17,50H18V51H17zM19,50H20V51H19zM21,50H22V51H21zM22,50H23V51H22zM23,50H24V51H23zM25,50H26V51H25zM26,50H27V51H26zM28,50H29V51H28zM30,50H31V51H30zM32,50H33V51H32zM35,50H36V51H35zM37,50H38V51H37zM39,50H40V51H39zM42,50H43V51H42zM46,50H47V51H46zM48,50H49V51H48zM50,50H51V51H50zM52,50H53V51H52zM54,50H55V51H54zM56,50H57V51H56zM4,51H5V52H4zM10,51H11V52H10zM12,51H13V52H12zM15,51H16V52H15zM16,51H17V52H16zM20,51H21V52H20zM23,51H24V52H23zM26,51H27V52H26zM28,51H29V52H28zM32,51H33V52H32zM33,51H34V52H33zM35,51H36V52H35zM37,51H38V52H37zM38,51H39V52H38zM39,51H40V52H39zM40,51H41V52H40zM46,51H47V52H46zM48,51H49V52H48zM52,51H53V52H52zM53,51H54V52H53zM55,51H56V52H55zM56,51H57V52H56zM4,52H5V53H4zM6,52H7V53H6zM7,52H8V53H7zM8,52H9V53H8zM10,52H11V53H10zM12,52H13V53H12zM13,52H14V53H13zM16,52H17V53H16zM20,52H21V53H20zM21,52H22V53H21zM23,52H24V53H23zM24,52H25V53H24zM25,52H26V53H25zM28,52H29V53H28zM29,52H30V53H29zM30,52H31V53H30zM31,52H32V53H31zM32,52H33V53H32zM34,52H35V53H34zM36,52H37V53H36zM37,52H38V53H37zM39,52H40V53H39zM40,52H41V53H40zM42,52H43V53H42zM45,52H46V53H45zM46,52H47V53H46zM47,52H48V53H47zM48,52H49V53H48zM49,52H50V53H49zM50,52H51V53H50zM51,52H52V53H51zM52,52H53V53H52zM55,52H56V53H55zM56,52H57V53H56zM4,53H5V54H4zM6,53H7V54H6zM7,53H8V54H7zM8,53H9V54H8zM10,53H11V54H10zM14,53H15V54H14zM16,53H17V54H16zM18,53H19V54H18zM20,53H21V54H20zM21,53H22V54H21zM22,53H23V54H22zM27,53H28V54H27zM28,53H29V54H28zM29,53H30V54H29zM31,53H32V54H31zM34,53H35V54H34zM37,53H38V54H37zM39,53H40V54H39zM40,53H41V54H40zM42,53H43V54H42zM44,53H45V54H44zM45,53H46V54H45zM46,53H47V54H46zM48,53H49V54H48zM51,53H52V54H51zM54,53H55V54H54zM55,53H56V54H55zM4,54H5V55H4zM6,54H7V55H6zM7,54H8V55H7zM8,54H9V55H8zM10,54H11V55H10zM14,54H15V55H14zM16,54H17V55H16zM19,54H20V55H19zM22,54H23V55H22zM23,54H24V55H23zM24,54H25V55H24zM26,54H27V55H26zM30,54H31V55H30zM33,54H34V55H33zM36,54H37V55H36zM38,54H39V55H38zM39,54H40V55H39zM40,54H41V55H40zM42,54H43V55H42zM45,54H46V55H45zM46,54H47V55H46zM50,54H51V55H50zM54,54H55V55H54zM56,54H57V55H56zM4,55H5V56H4zM10,55H11V56H10zM16,55H17V56H16zM20,55H21V56H20zM22,55H23V56H22zM23,55H24V56H23zM24,55H25V56H24zM25,55H26V56H25zM26,55H27V56H26zM32,55H33V56H32zM33,55H34V56H33zM38,55H39V56H38zM43,55H44V56H43zM47,55H48V56H47zM50,55H51V56H50zM53,55H54V56H53zM55,55H56V56H55zM56,55H57V56H56zM4,56H5V57H4zM5,56H6V57H5zM6,56H7V57H6zM7,56H8V57H7zM8,56H9V57H8zM9,56H10V57H9zM10,56H11V57H10zM17,56H18V57H17zM19,56H20V57H19zM21,56H22V57H21zM23,56H24V57H23zM24,56H25V57H24zM25,56H26V57H25zM27,56H28V57H27zM28,56H29V57H28zM29,56H30V57H29zM31,56H32V57H31zM32,56H33V57H32zM37,56H38V57H37zM38,56H39V57H38zM40,56H41V57H40zM42,56H43V57H42zM45,56H46V57H45zM46,56H47V57H46zM47,56H48V57H47zM48,56H49V57H48zM50,56H51V57H50zM51,56H52V57H51zM53,56H54V57H53zM55,56H56V57H55z" id="qr-path" fill="#000000" fill-opacity="1" fill-rule="nonzero" stroke="none"/></svg>